<?xml version="1.0" encoding="iso-8859-1"?>
<!-- Uploaded to: SVG Repo, www.svgrepo.com, Transformed by: SVG Repo Mixer Tools -->
<svg fill="#000000" height="800px" width="800px" version="1.1" id="Layer_1" xmlns="http://www.w3.org/2000/svg" xmlns:xlink="http://www.w3.org/1999/xlink" 
	 viewBox="0 0 512.002 512.002" xml:space="preserve">
<g>
	<g>
		<path d="M467.702,256.002c23.975-42.701,38.715-84.73,42.987-122.094c-11.505,5.858-24.51,9.187-38.284,9.187
			c-6.829,0-13.462-0.834-19.826-2.367c-1.443,7.472-3.41,15.297-5.903,23.4c-3.75,12.19-8.607,24.698-14.458,37.359
			c-16.507-22.22-35.379-44.155-56.462-65.239c-21.087-21.087-43.028-39.952-65.25-56.46c27.679-12.734,54.355-20.573,77.254-22.715
			c0.344-21.922,9.055-41.839,23.08-56.707C407.317,0.135,403.741,0,400.096,0c-42.436,0.002-92.782,15.485-144.09,44.293
			C204.698,15.483,154.35-0.004,111.911,0.002C78.519,0.004,50.009,9.589,29.8,29.798C-16.094,75.692-7.182,164.309,44.299,256.002
			C13.019,311.715-2.538,366.288,0.366,410.837c14.86-14.019,34.766-22.728,56.675-23.08c1.14-12.16,3.89-25.59,8.287-39.884
			c3.75-12.188,8.607-24.696,14.458-37.357c16.505,22.22,35.379,44.155,56.46,65.239c21.087,21.087,43.03,39.952,65.252,56.46
			c-21.266,9.785-41.95,16.695-60.775,20.336c1.537,6.374,2.373,13.014,2.373,19.853c0,13.778-3.329,26.787-9.194,38.299
			c37.362-4.272,79.397-19.019,122.096-42.994c51.31,28.81,101.656,44.293,144.096,44.293c33.394,0,61.9-9.588,82.111-29.796
			C528.095,436.312,519.183,347.694,467.702,256.002z M65.328,164.129c-13.265-43.105-11.624-78.4,4.39-94.413
			c8.799-8.797,22.995-13.261,42.197-13.261h0.009h0.002c25.359,0,56.775,8.233,89.579,23.328
			c-22.224,16.509-44.169,35.375-65.256,56.464c-21.083,21.083-39.957,43.021-56.462,65.239
			C73.935,188.827,69.078,176.317,65.328,164.129z M176.167,335.837c-25.097-25.097-47.336-52.271-65.641-79.835
			c18.304-27.568,40.544-54.74,65.641-79.837c25.142-25.142,52.206-47.362,79.837-65.703c27.628,18.341,54.69,40.559,79.834,65.702
			c25.097,25.097,47.336,52.27,65.639,79.837c-18.304,27.566-40.542,54.738-65.639,79.837
			c-25.144,25.142-52.206,47.36-79.837,65.702C228.371,383.197,201.309,360.98,176.167,335.837z M442.289,442.285
			c-8.801,8.801-22.997,13.263-42.195,13.263c-25.364,0-56.784-8.235-89.594-23.332c22.224-16.509,44.167-35.373,65.256-56.46
			c21.083-21.083,39.955-43.021,56.462-65.241c5.852,12.66,10.707,25.17,14.457,37.359
			C459.94,390.979,458.299,426.275,442.289,442.285z"/>
	</g>
</g>
<g>
	<g>
		<circle cx="472.399" cy="58.41" r="28.226"/>
	</g>
</g>
<g>
	<g>
		<circle cx="255.997" cy="255.994" r="75.27"/>
	</g>
</g>
<g>
	<g>
		<circle cx="58.412" cy="472.397" r="28.226"/>
	</g>
</g>
</svg>