<?xml version="1.0" encoding="iso-8859-1"?>
<!-- Uploaded to: SVG Repo, www.svgrepo.com, Transformed by: SVG Repo Mixer Tools -->
<svg fill="#000000" height="800px" width="800px" version="1.1" id="Layer_1" xmlns="http://www.w3.org/2000/svg" xmlns:xlink="http://www.w3.org/1999/xlink" 
	 viewBox="0 0 512 512" xml:space="preserve">
<g>
	<g>
		<path d="M437.019,74.982C388.667,26.63,324.38,0.001,256,0.001c-41.936,0-83.541,10.367-120.314,29.979L150,56.819
			c32.383-17.272,69.038-26.401,106-26.401c60.255,0,116.904,23.465,159.511,66.071S481.583,195.745,481.583,256
			c0,60.254-23.465,116.904-66.072,159.511c-42.607,42.606-99.255,66.071-159.511,66.071c-60.255,0-116.904-23.465-159.511-66.071
			c-42.606-42.606-66.072-99.255-66.072-159.51c0-36.964,9.13-73.62,26.404-106.005L29.983,135.68
			C10.368,172.455,0,214.061,0,256.001c0,68.38,26.628,132.668,74.98,181.019c48.352,48.351,112.639,74.98,181.02,74.98
			s132.668-26.629,181.02-74.98C485.372,388.668,512,324.38,512,256.001S485.371,123.333,437.019,74.982z"/>
	</g>
</g>
<g>
	<g>
		<path d="M256,87.692c-92.806,0-168.308,75.503-168.308,168.308S163.194,424.309,256,424.309c17.92,0,35.566-2.805,52.447-8.337
			l-9.472-28.904c-13.82,4.528-28.278,6.824-42.975,6.824c-76.034,0-137.891-61.858-137.891-137.891S179.966,118.108,256,118.108
			S393.891,179.967,393.891,256c0,14.697-2.297,29.156-6.825,42.975l28.905,9.472c5.531-16.882,8.336-34.527,8.336-52.446
			C424.308,163.196,348.806,87.692,256,87.692z"/>
	</g>
</g>
<g>
	<g>
		<path d="M344.21,271.209v-30.417h-25.899c-1.579-6.466-4.127-12.555-7.503-18.091l18.32-18.32l-21.509-21.508l-18.319,18.32
			c-5.536-3.376-11.625-5.924-18.091-7.503v-25.899h-30.417v25.899c-6.466,1.579-12.555,4.127-18.091,7.503l-18.32-18.32
			l-21.508,21.508l18.32,18.32c-3.376,5.536-5.924,11.625-7.503,18.092H167.79v30.417h25.899c1.579,6.466,4.127,12.555,7.503,18.092
			l-18.32,18.32l21.508,21.508l18.32-18.32c5.536,3.376,11.625,5.924,18.091,7.503v25.899h30.417v-0.002v-25.899
			c6.466-1.579,12.555-4.127,18.091-7.503l18.319,18.32l21.509-21.508l-18.32-18.32c3.376-5.536,5.924-11.625,7.503-18.091H344.21z"
			/>
	</g>
</g>
<g>
	<g>
		<path d="M364.258,313.419c-28.031,0-50.838,22.806-50.838,50.839c0,28.032,22.806,50.838,50.838,50.838
			s50.838-22.806,50.838-50.838S392.29,313.419,364.258,313.419z"/>
	</g>
</g>
<g>
	<g>
		<path d="M85.735,34.896c-28.032,0-50.838,22.806-50.838,50.839c0,28.032,22.806,50.838,50.838,50.838
			c28.031,0,50.838-22.806,50.838-50.838S113.767,34.896,85.735,34.896z"/>
	</g>
</g>
</svg>