<?xml version="1.0" encoding="iso-8859-1"?>
<!-- Uploaded to: SVG Repo, www.svgrepo.com, Transformed by: SVG Repo Mixer Tools -->
<svg fill="#000000" height="800px" width="800px" version="1.1" id="Layer_1" xmlns="http://www.w3.org/2000/svg" xmlns:xlink="http://www.w3.org/1999/xlink" 
	 viewBox="0 0 512 512" xml:space="preserve">
<g>
	<g>
		<g>
			<path d="M240.241,167.622c10.996-2.043,22.315-2.039,33.294,0c2.339,0.435,4.477-1.525,4.136-3.879
				c-3.655-25.26-37.878-25.331-41.565,0.007C235.762,166.102,237.904,168.056,240.241,167.622z"/>
			<path d="M273.532,346.152c-10.996,2.043-22.314,2.04-33.292,0c-2.334-0.434-4.477,1.518-4.136,3.867
				c3.682,25.37,37.892,25.253,41.565,0.01C278.01,347.676,275.87,345.717,273.532,346.152z"/>
			<path d="M182.028,205.568c6.328-9.216,14.325-17.213,23.541-23.54c1.96-1.346,2.086-4.242,0.184-5.667
				c-20.504-15.366-44.747,8.86-29.39,29.393C177.787,207.657,180.683,207.527,182.028,205.568z"/>
			<path d="M308,337.411c20.51,15.405,44.788-8.908,29.409-29.409c-1.423-1.898-4.314-1.761-5.657,0.194
				c-6.331,9.223-14.335,17.227-23.558,23.558C306.239,333.096,306.102,335.986,308,337.411z"/>
			<path d="M205.756,337.405c1.903-1.421,1.768-4.315-0.189-5.66c-9.219-6.33-17.219-14.331-23.547-23.553
				c-1.343-1.956-4.232-2.091-5.657-0.194C161.001,328.433,185.142,352.806,205.756,337.405z"/>
			<path d="M331.745,205.568c1.346,1.96,4.242,2.088,5.667,0.184c15.333-20.483-8.857-44.815-29.416-29.384
				c-1.896,1.422-1.757,4.311,0.199,5.653C317.414,188.349,325.415,196.35,331.745,205.568z"/>
			<path d="M163.755,236.103c-25.37,3.68-25.255,37.892-0.01,41.565c2.354,0.342,4.312-1.798,3.877-4.136
				c-2.043-10.996-2.039-22.315,0-33.294C168.056,237.904,166.104,235.763,163.755,236.103z"/>
			<path d="M350.027,277.67c25.317-3.672,25.274-37.888,0.003-41.565c-2.354-0.342-4.312,1.798-3.877,4.136
				c2.043,10.996,2.04,22.314,0,33.292C345.717,275.871,347.674,278.012,350.027,277.67z"/>
			<path d="M140.655,27.857c-4.321,2.205-5.316,8.026-1.801,11.37c6.44,6.126,11.528,13.278,15.171,21.051
				c1.682,3.592,5.93,5.121,9.499,3.39C303.806-4.378,469.742,98.327,469.762,256.17c0.004,52.868-19.267,101.302-51.17,138.638
				c24.39-50.034-40.305-95.477-79.284-56.501c-39.377,39.381,7.194,103.877,56.969,79.032
				c-37.498,32.636-86.482,52.423-140.086,52.426C98.115,469.771-4.3,303.652,63.666,163.528c1.732-3.569,0.2-7.817-3.392-9.5
				c-7.728-3.624-14.879-8.685-21.014-15.136c-3.359-3.532-9.21-2.533-11.426,1.809C-57.982,308.922,64.895,512.01,256.197,512
				c141.258-0.007,255.816-114.513,255.802-255.835C511.979,64.852,308.885-57.999,140.655,27.857z"/>
			<path d="M116.875,131.814c-127.076,141.254,19.484,365.243,202.532,300.325c4.716-1.673,6.203-7.656,2.821-11.345
				c-5.984-6.526-10.618-14.055-13.742-22.293c-1.344-3.544-5.174-5.409-8.788-4.269c-141.797,44.71-252.63-133.296-145.21-240.736
				c106.557-106.535,285.064,1.719,240.722,145.217c-1.107,3.58,0.704,7.397,4.207,8.726c8.198,3.111,15.787,7.741,22.411,13.823
				c3.683,3.38,9.667,1.884,11.336-2.828c64.981-183.394-159.974-330.237-301.2-201.794c12.085-19.091,9.802-44.693-6.806-61.281
				c-19.232-19.235-50.54-19.24-69.812,0.006c-19.229,19.25-19.226,50.559,0.027,69.814
				C72.171,141.937,97.861,143.998,116.875,131.814z"/>
			<path d="M326.559,256.885c0-38.42-31.257-69.676-69.675-69.676c-38.42,0-69.676,31.257-69.676,69.676
				c0,38.42,31.257,69.676,69.676,69.676C295.302,326.562,326.559,295.305,326.559,256.885z"/>
		</g>
	</g>
</g>
</svg>