<?xml version="1.0" encoding="iso-8859-1"?>
<!-- Uploaded to: SVG Repo, www.svgrepo.com, Transformed by: SVG Repo Mixer Tools -->
<svg fill="#000000" height="800px" width="800px" version="1.1" id="Layer_1" xmlns="http://www.w3.org/2000/svg" xmlns:xlink="http://www.w3.org/1999/xlink" 
	 viewBox="0 0 512 512" xml:space="preserve">
<g>
	<g>
		<g>
			<path d="M436.796,75.247c-87.751-87.75-225.157-99.411-325.775-29.803c-41.648-19.313-84.843,23.887-65.534,65.531
				c-116.969,169.072,5.392,400.72,210.575,400.71C481.873,511.675,598.333,236.783,436.796,75.247z M85.172,85.148
				c6.705-6.695,16.665,3.473,10.074,10.057C88.384,102.066,78.706,91.62,85.172,85.148z M105.138,406.906
				C32.754,334.523,22.355,221.684,78.14,138.002c12.837,3.227,27.039,1.212,38.8-6.374c-65.153,73.327-62.62,186.024,7.62,256.265
				c60.546,60.544,154.006,71.859,226.948,28.967c13.929,7.129,30.485,7.223,44.513,0.238
				C312.559,489.875,185.454,487.223,105.138,406.906z M368.981,367.935c6.623-6.623,16.689,3.435,10.061,10.057
				c-0.003,0.003-0.006,0.006-0.008,0.008C372.412,384.615,362.197,374.718,368.981,367.935z M383.999,324.722
				c-35.248-7.144-65.251,23.807-58.24,58.23c-55.905,30.302-125.761,20.678-171.349-24.909
				c-56.422-56.422-56.422-148.235-0.001-204.665c56.427-56.416,148.245-56.426,204.679-0.003
				C404.621,198.917,414.328,268.752,383.999,324.722z M418.389,394.536c6.609-13.565,6.75-30.011-0.469-44.063
				c42.785-72.777,31.669-166.284-28.984-226.948c-70.511-70.5-183.802-72.792-257.105-6.886c7.438-11.685,9.418-25.703,6.21-38.537
				c83.685-55.786,196.524-45.385,268.905,26.997C486.89,185.041,489.803,311.167,418.389,394.536z"/>
			<path d="M334.057,209.252c22.477-22.473-7.331-52.368-29.849-29.849c-8.042-4.955-16.914-8.675-26.351-10.933
				c0-31.793-42.214-31.801-42.214,0c-9.438,2.257-18.31,5.979-26.351,10.933c-22.476-22.475-52.368,7.33-29.849,29.849
				c-4.955,8.042-8.676,16.915-10.933,26.351c-31.642,0-31.894,42.214,0,42.214c2.257,9.438,5.979,18.31,10.933,26.351
				c-22.475,22.477,7.338,52.366,29.851,29.849c8.042,4.954,16.914,8.675,26.351,10.933c0,31.793,42.214,31.801,42.214,0
				c9.438-2.257,18.31-5.979,26.351-10.933c22.479,22.475,52.368-7.333,29.849-29.849c4.954-8.042,8.676-16.914,10.933-26.351
				c31.763,0,31.814-42.214-0.001-42.214C342.734,226.166,339.012,217.294,334.057,209.252z M256.75,305.241
				c-26.761,0-48.532-21.771-48.532-48.532c0-26.761,21.772-48.532,48.532-48.532s48.53,21.771,48.53,48.532
				C305.28,283.47,283.511,305.241,256.75,305.241z"/>
		</g>
	</g>
</g>
</svg>